<svg fill="none" height="40" viewBox="0 0 40 40" width="40" xmlns="http://www.w3.org/2000/svg"><g stroke="#000" stroke-linecap="round" stroke-linejoin="round" stroke-width="2"><path d="m25.4217 16.8516-5.6214 7.0022c-.6212.7737-1.7766.8367-2.4782.1351l-2.3222-2.3222"/><path d="m21.7647 7.15755c.346-.2227.519-.33405.6593-.40658 1.7732-.91684 3.9493-.08002 4.6513 1.78873.0555.14785.1094.34642.217.74358.0497.18337.0745.27506.1023.35941.3363 1.02191 1.1452 1.81871 2.1721 2.13961.0847.0265.1768.0499.3609.0969l.2499.0637c.8651.2205 1.2976.3307 1.6135.4874 1.4357.712 2.1616 2.345 1.7281 3.8879-.0954.3394-.3033.7344-.7192 1.5242l-.1202.2283c-.0885.1681-.1328.2521-.1699.3328-.4498.9773-.4003 2.1116.1329 3.046.044.0771.0954.157.1983.3167.2227.3461.334.5191.4065.6594.9169 1.7732.0801 3.9493-1.7887 4.6513-.1478.0555-.3464.1093-.7436.217-.1833.0497-.275.0745-.3594.1023-1.0219.3363-1.8187 1.1452-2.1396 2.1721-.0264.0847-.0499.1768-.0968.3609l-.0637.2499c-.2206.865-.3308 1.2976-.4875 1.6134-.712 1.4358-2.345 2.1617-3.8878 1.7282-.3395-.0954-.7344-.3033-1.5243-.7192l-.2282-.1202c-.1681-.0885-.2522-.1328-.3329-.1699-.9773-.4499-2.1116-.4004-3.046.1329-.0771.044-.157.0954-.3167.1983-.346.2226-.519.334-.6593.4065-1.7733.9169-3.9493.0801-4.6514-1.7887-.0555-.1478-.1093-.3464-.217-.7436-.0497-.1833-.0745-.275-.1023-.3594-.3363-1.0219-1.1452-1.8187-2.1721-2.1396-.0847-.0265-.1768-.0499-.3609-.0969l-.24989-.0637c-.86504-.2205-1.29755-.3307-1.61344-.4874-1.43577-.712-2.16163-2.345-1.72816-3.8879.09537-.3394.30333-.7343.71924-1.5242l.12017-.2283c.08852-.1681.13277-.2521.16991-.3328.44984-.9773.40035-2.1116-.13291-3.046-.04402-.0771-.09543-.157-.19825-.3167-.2227-.346-.33405-.5191-.40659-.6594-.91684-1.7732-.08002-3.9492 1.78873-4.6513.14785-.0555.34643-.1093.74358-.217.18337-.0497.27506-.0745.35941-.1023 1.0219-.3363 1.8187-1.1452 2.1396-2.1721.0265-.0847.0499-.1768.0969-.3609l.0637-.2499c.2205-.86504.3307-1.29756.4874-1.61344.712-1.43577 2.345-2.16163 3.8879-1.72816.3394.09537.7344.30333 1.5243.71924l.2282.12017c.1681.08851.2521.13277.3328.1699.9773.44985 2.1116.40035 3.046-.13291.0771-.04402.157-.09543.3168-.19825z"/></g></svg>