<svg fill="none" height="24" viewBox="0 0 24 24" width="24" xmlns="http://www.w3.org/2000/svg"><g stroke="#000000" stroke-width="1.5"><path d="m19.0993 10.6602c1.112 1.3142.8807 2.9213.8808 4.3398 0 3.9062-5.2669 5-7.9801 5-2.71323 0-7.98006-1.0938-7.98006-5 .00001-1.4185-.23119-3.0256.88072-4.3398m14.19864 0c-.1945-.2299-.4301-.4508-.7153-.6602m.7153.6602c.7.4032.8788-1.10551.8808-1.5977v-1.87489c0-1.625-1.1172-2.1875-2.0748-2.1875s-2.8729 1.56239-3.5113 1.56239c-.7661 0-.9136-.15614-2.394-.15614-1.4803 0-1.6279.15614-2.39399.15614-.63841 0-2.55365-1.5625-3.51125-1.5625-.95761 0-2.07481.5625-2.07481 2.1875v1.875c.00193.49219.18077 2.0009.88071 1.5977m0 0c.19453-.2299.43016-.4508.71533-.6602" stroke-linecap="round"/><path d="m12.8258 16c0 .1726-.3611.3125-.8065.3125-.4453 0-.8064-.1399-.8064-.3125s.3611-.3125.8064-.3125c.4454 0 .8065.1399.8065.3125z"/><path d="m15.5 13.5938c0 .4314-.2166.7812-.4839.7812-.2672 0-.4838-.3498-.4838-.7812 0-.4315.2166-.7813.4838-.7813.2673 0 .4839.3498.4839.7813z"/><path d="m9.5 13.5938c0 .4314-.21664.7812-.48387.7812-.26724 0-.48387-.3498-.48387-.7812 0-.4315.21663-.7813.48387-.7813.26723 0 .48387.3498.48387.7813z"/><g stroke-linecap="round"><path d="m22.0004 15.4688c-.4839-.3126-2.5807-1.0938-3.3871-1.0938"/><path d="m20.3871 17.9688c-.4838-.3126-1.6129-1.0938-2.4193-1.0938"/><path d="m2 15.4688c.48387-.3126 2.58065-1.0938 3.3871-1.0938"/><path d="m3.61279 17.9688c.48388-.3126 1.61291-1.0938 2.41936-1.0938"/></g></g></svg>