<svg fill="none" height="40" viewBox="0 0 40 40" width="40" xmlns="http://www.w3.org/2000/svg"><g stroke="#000" stroke-linecap="round" stroke-linejoin="round" stroke-width="2"><path d="m21.4368 11.703c-1.0899.5273-.8686 2.141.3229 2.3554l2.4815.4467c.7159.1288 1.2655.707 1.3579 1.4284l.3602 2.8108c.1553 1.212 1.7784 1.5042 2.3466.4224l1.3176-2.5088c.3382-.644 1.0549-.9942 1.7708-.8654l2.4814.4466c1.1916.2145 1.9616-1.2208 1.124-2.095l-1.99-2.077c-.522-.5448-.6129-1.3723-.2216-2.0175l1.3928-2.29608c.6459-1.06473-.4923-2.31595-1.6132-1.77346l-2.3044 1.11522c-.6505.3148-1.4297.17455-1.9296-.3473l-1.7709-1.84871c-.8615-.89928-2.3645-.12344-2.1304 1.09966l.5048 2.63768c.1419.74107-.2319 1.48499-.9111 1.81359z"/><path d="m19.4222 18.0177-14.14214 14.1422c-.65088.6508-.65088 1.7061 0 2.357.65087.6509 1.70614.6509 2.35702 0l14.14212-14.1421c.6509-.6509.6509-1.7062 0-2.3571-.6509-.6508-1.7061-.6508-2.357 0z"/></g></svg>