<svg fill="none" height="60" viewBox="0 0 24 24" width="60" xmlns="http://www.w3.org/2000/svg"><path clip-rule="evenodd" d="m3.4 3.4c-1.4 1.41333-1.4 3.67333-1.4 8.2v.8c0 4.52 0 6.78 1.4 8.2 1.41333 1.4 3.67333 1.4 8.2 1.4h.8c4.52 0 6.78 0 8.2-1.4 1.4-1.4133 1.4-3.6733 1.4-8.2v-.8c0-4.52 0-6.78-1.4-8.2-1.4133-1.4-3.6733-1.4-8.2-1.4h-.8c-4.52 0-6.78 0-8.2 1.4zm1.97333 4.68667c.10667 5.20003 2.70667 8.32003 7.26667 8.32003h.2667v-2.9734c1.6733.1667 2.94 1.3934 3.4466 2.9734h2.3667c-.2427-.8978-.6731-1.734-1.2626-2.4534-.5895-.7193-1.3248-1.3055-2.1574-1.72.7461-.4543 1.3905-1.0577 1.8929-1.7723s.8521-1.52515 1.0271-2.381h-2.1467c-.4666 1.65334-1.8533 3.1533-3.1666 3.2933v-3.28663h-2.1534v5.76003c-1.3333-.3334-3.0133-1.9467-3.08664-5.76003z" fill="#fff" fill-rule="evenodd"/></svg>